<svg width="173" height="68" viewBox="0 0 173 68" fill="none" xmlns="http://www.w3.org/2000/svg">
  <path d="M11.696 33.576C10.5013 33.7893 9.488 34.4187 8.656 35.464C7.824 36.5093 7.408 37.6933 7.408 39.016C7.408 40.1467 7.70667 41.1707 8.304 42.088C8.88 42.984 9.72267 43.6987 10.832 44.232C11.9413 44.744 13.232 45 14.704 45H23.6V22.76H15.12C13.6053 22.76 12.304 23.016 11.216 23.528C10.128 24.04 9.30667 24.7333 8.752 25.608C8.19733 26.4613 7.92 27.4213 7.92 28.488C7.92 29.768 8.26133 30.8347 8.944 31.688C9.62667 32.5413 10.544 33.1707 11.696 33.576ZM19.952 32.104H15.44C14.2453 32.104 13.3173 31.8373 12.656 31.304C11.9733 30.7493 11.632 29.96 11.632 28.936C11.632 27.9333 11.9733 27.1547 12.656 26.6C13.3173 26.024 14.2453 25.736 15.44 25.736H19.952V32.104ZM15.024 42.024C13.7867 42.024 12.816 41.7253 12.112 41.128C11.408 40.5307 11.056 39.6987 11.056 38.632C11.056 37.544 11.4293 36.68 12.176 36.04C12.9227 35.4 13.9147 35.08 15.152 35.08H19.952V42.024H15.024Z" fill="black"/>
  <path d="M36.304 33.576C37.4987 33.7893 38.512 34.4187 39.344 35.464C40.176 36.5093 40.592 37.6933 40.592 39.016C40.592 40.1467 40.2933 41.1707 39.696 42.088C39.12 42.984 38.2773 43.6987 37.168 44.232C36.0587 44.744 34.768 45 33.296 45H24.4V22.76H32.88C34.3947 22.76 35.696 23.016 36.784 23.528C37.872 24.04 38.6933 24.7333 39.248 25.608C39.8027 26.4613 40.08 27.4213 40.08 28.488C40.08 29.768 39.7387 30.8347 39.056 31.688C38.3733 32.5413 37.456 33.1707 36.304 33.576ZM28.048 32.104H32.56C33.7547 32.104 34.6827 31.8373 35.344 31.304C36.0267 30.7493 36.368 29.96 36.368 28.936C36.368 27.9333 36.0267 27.1547 35.344 26.6C34.6827 26.024 33.7547 25.736 32.56 25.736H28.048V32.104ZM32.976 42.024C34.2133 42.024 35.184 41.7253 35.888 41.128C36.592 40.5307 36.944 39.6987 36.944 38.632C36.944 37.544 36.5707 36.68 35.824 36.04C35.0773 35.4 34.0853 35.08 32.848 35.08H28.048V42.024H32.976ZM48.2043 29.928C48.7376 29.032 49.4416 28.3387 50.3163 27.848C51.2123 27.336 52.2683 27.08 53.4843 27.08V30.856H52.5563C51.1269 30.856 50.0389 31.2187 49.2923 31.944C48.5669 32.6693 48.2043 33.928 48.2043 35.72V45H44.5563V27.368H48.2043V29.928ZM55.6215 36.104C55.6215 34.3333 55.9842 32.7653 56.7095 31.4C57.4562 30.0347 58.4588 28.9787 59.7175 28.232C60.9975 27.464 62.4055 27.08 63.9415 27.08C65.3282 27.08 66.5335 27.3573 67.5575 27.912C68.6028 28.4453 69.4348 29.1173 70.0535 29.928V27.368H73.7335V45H70.0535V42.376C69.4348 43.208 68.5922 43.9013 67.5255 44.456C66.4588 45.0107 65.2428 45.288 63.8775 45.288C62.3628 45.288 60.9762 44.904 59.7175 44.136C58.4588 43.3467 57.4562 42.2587 56.7095 40.872C55.9842 39.464 55.6215 37.8747 55.6215 36.104ZM70.0535 36.168C70.0535 34.952 69.7975 33.896 69.2855 33C68.7948 32.104 68.1442 31.4213 67.3335 30.952C66.5228 30.4827 65.6482 30.248 64.7095 30.248C63.7708 30.248 62.8962 30.4827 62.0855 30.952C61.2748 31.4 60.6135 32.072 60.1015 32.968C59.6108 33.8427 59.3655 34.888 59.3655 36.104C59.3655 37.32 59.6108 38.3867 60.1015 39.304C60.6135 40.2213 61.2748 40.9253 62.0855 41.416C62.9175 41.8853 63.7922 42.12 64.7095 42.12C65.6482 42.12 66.5228 41.8853 67.3335 41.416C68.1442 40.9467 68.7948 40.264 69.2855 39.368C69.7975 38.4507 70.0535 37.384 70.0535 36.168ZM87.421 27.08C88.8077 27.08 90.045 27.368 91.133 27.944C92.2423 28.52 93.1063 29.3733 93.725 30.504C94.3437 31.6347 94.653 33 94.653 34.6V45H91.037V35.144C91.037 33.5653 90.6423 32.36 89.853 31.528C89.0637 30.6747 87.9863 30.248 86.621 30.248C85.2557 30.248 84.1677 30.6747 83.357 31.528C82.5677 32.36 82.173 33.5653 82.173 35.144V45H78.525V27.368H82.173V29.384C82.7703 28.6587 83.5277 28.0933 84.445 27.688C85.3837 27.2827 86.3757 27.08 87.421 27.08ZM98.0903 36.104C98.0903 34.3333 98.4529 32.7653 99.1783 31.4C99.9249 30.0347 100.928 28.9787 102.186 28.232C103.466 27.464 104.885 27.08 106.442 27.08C107.594 27.08 108.725 27.336 109.834 27.848C110.965 28.3387 111.861 29 112.522 29.832V21.32H116.202V45H112.522V42.344C111.925 43.1973 111.093 43.9013 110.026 44.456C108.981 45.0107 107.776 45.288 106.41 45.288C104.874 45.288 103.466 44.904 102.186 44.136C100.928 43.3467 99.9249 42.2587 99.1783 40.872C98.4529 39.464 98.0903 37.8747 98.0903 36.104ZM112.522 36.168C112.522 34.952 112.266 33.896 111.754 33C111.264 32.104 110.613 31.4213 109.802 30.952C108.992 30.4827 108.117 30.248 107.178 30.248C106.24 30.248 105.365 30.4827 104.554 30.952C103.744 31.4 103.082 32.072 102.57 32.968C102.08 33.8427 101.834 34.888 101.834 36.104C101.834 37.32 102.08 38.3867 102.57 39.304C103.082 40.2213 103.744 40.9253 104.554 41.416C105.386 41.8853 106.261 42.12 107.178 42.12C108.117 42.12 108.992 41.8853 109.802 41.416C110.613 40.9467 111.264 40.264 111.754 39.368C112.266 38.4507 112.522 37.384 112.522 36.168ZM128.642 45.288C126.978 45.288 125.474 44.9147 124.13 44.168C122.786 43.4 121.73 42.3333 120.962 40.968C120.194 39.5813 119.81 37.9813 119.81 36.168C119.81 34.376 120.204 32.7867 120.994 31.4C121.783 30.0133 122.86 28.9467 124.226 28.2C125.591 27.4533 127.116 27.08 128.802 27.08C130.487 27.08 132.012 27.4533 133.378 28.2C134.743 28.9467 135.82 30.0133 136.61 31.4C137.399 32.7867 137.794 34.376 137.794 36.168C137.794 37.96 137.388 39.5493 136.578 40.936C135.767 42.3227 134.658 43.4 133.25 44.168C131.863 44.9147 130.327 45.288 128.642 45.288ZM128.642 42.12C129.58 42.12 130.455 41.896 131.266 41.448C132.098 41 132.77 40.328 133.282 39.432C133.794 38.536 134.05 37.448 134.05 36.168C134.05 34.888 133.804 33.8107 133.314 32.936C132.823 32.04 132.172 31.368 131.362 30.92C130.551 30.472 129.676 30.248 128.738 30.248C127.799 30.248 126.924 30.472 126.114 30.92C125.324 31.368 124.695 32.04 124.226 32.936C123.756 33.8107 123.522 34.888 123.522 36.168C123.522 38.0667 124.002 39.5387 124.962 40.584C125.943 41.608 127.17 42.12 128.642 42.12ZM150.296 27.08C151.683 27.08 152.92 27.368 154.008 27.944C155.117 28.52 155.981 29.3733 156.6 30.504C157.219 31.6347 157.528 33 157.528 34.6V45H153.912V35.144C153.912 33.5653 153.517 32.36 152.728 31.528C151.939 30.6747 150.861 30.248 149.496 30.248C148.131 30.248 147.043 30.6747 146.232 31.528C145.443 32.36 145.048 33.5653 145.048 35.144V45H141.4V27.368H145.048V29.384C145.645 28.6587 146.403 28.0933 147.32 27.688C148.259 27.2827 149.251 27.08 150.296 27.08ZM163.653 45.224C162.992 45.224 162.437 45 161.989 44.552C161.541 44.104 161.317 43.5493 161.317 42.888C161.317 42.2267 161.541 41.672 161.989 41.224C162.437 40.776 162.992 40.552 163.653 40.552C164.293 40.552 164.837 40.776 165.285 41.224C165.733 41.672 165.957 42.2267 165.957 42.888C165.957 43.5493 165.733 44.104 165.285 44.552C164.837 45 164.293 45.224 163.653 45.224Z" fill="black"/>
</svg>
  