<svg width="173" height="48" viewBox="0 0 173 48" fill="none" xmlns="http://www.w3.org/2000/svg">
  <path d="M11.696 23.576C10.5013 23.7893 9.488 24.4187 8.656 25.464C7.824 26.5093 7.408 27.6933 7.408 29.016C7.408 30.1467 7.70667 31.1707 8.304 32.088C8.88 32.984 9.72267 33.6987 10.832 34.232C11.9413 34.744 13.232 35 14.704 35H23.6V12.76H15.12C13.6053 12.76 12.304 13.016 11.216 13.528C10.128 14.04 9.30667 14.7333 8.752 15.608C8.19733 16.4613 7.92 17.4213 7.92 18.488C7.92 19.768 8.26133 20.8347 8.944 21.688C9.62667 22.5413 10.544 23.1707 11.696 23.576ZM19.952 22.104H15.44C14.2453 22.104 13.3173 21.8373 12.656 21.304C11.9733 20.7493 11.632 19.96 11.632 18.936C11.632 17.9333 11.9733 17.1547 12.656 16.6C13.3173 16.024 14.2453 15.736 15.44 15.736H19.952V22.104ZM15.024 32.024C13.7867 32.024 12.816 31.7253 12.112 31.128C11.408 30.5307 11.056 29.6987 11.056 28.632C11.056 27.544 11.4293 26.68 12.176 26.04C12.9227 25.4 13.9147 25.08 15.152 25.08H19.952V32.024H15.024Z" fill="black"/>
  <path d="M36.304 23.576C37.4987 23.7893 38.512 24.4187 39.344 25.464C40.176 26.5093 40.592 27.6933 40.592 29.016C40.592 30.1467 40.2933 31.1707 39.696 32.088C39.12 32.984 38.2773 33.6987 37.168 34.232C36.0587 34.744 34.768 35 33.296 35H24.4V12.76H32.88C34.3947 12.76 35.696 13.016 36.784 13.528C37.872 14.04 38.6933 14.7333 39.248 15.608C39.8027 16.4613 40.08 17.4213 40.08 18.488C40.08 19.768 39.7387 20.8347 39.056 21.688C38.3733 22.5413 37.456 23.1707 36.304 23.576ZM28.048 22.104H32.56C33.7547 22.104 34.6827 21.8373 35.344 21.304C36.0267 20.7493 36.368 19.96 36.368 18.936C36.368 17.9333 36.0267 17.1547 35.344 16.6C34.6827 16.024 33.7547 15.736 32.56 15.736H28.048V22.104ZM32.976 32.024C34.2133 32.024 35.184 31.7253 35.888 31.128C36.592 30.5307 36.944 29.6987 36.944 28.632C36.944 27.544 36.5707 26.68 35.824 26.04C35.0773 25.4 34.0853 25.08 32.848 25.08H28.048V32.024H32.976ZM48.2043 19.928C48.7376 19.032 49.4416 18.3387 50.3163 17.848C51.2123 17.336 52.2683 17.08 53.4843 17.08V20.856H52.5563C51.1269 20.856 50.0389 21.2187 49.2923 21.944C48.5669 22.6693 48.2043 23.928 48.2043 25.72V35H44.5563V17.368H48.2043V19.928ZM55.6215 26.104C55.6215 24.3333 55.9842 22.7653 56.7095 21.4C57.4562 20.0347 58.4588 18.9787 59.7175 18.232C60.9975 17.464 62.4055 17.08 63.9415 17.08C65.3282 17.08 66.5335 17.3573 67.5575 17.912C68.6028 18.4453 69.4348 19.1173 70.0535 19.928V17.368H73.7335V35H70.0535V32.376C69.4348 33.208 68.5922 33.9013 67.5255 34.456C66.4588 35.0107 65.2428 35.288 63.8775 35.288C62.3628 35.288 60.9762 34.904 59.7175 34.136C58.4588 33.3467 57.4562 32.2587 56.7095 30.872C55.9842 29.464 55.6215 27.8747 55.6215 26.104ZM70.0535 26.168C70.0535 24.952 69.7975 23.896 69.2855 23C68.7948 22.104 68.1442 21.4213 67.3335 20.952C66.5228 20.4827 65.6482 20.248 64.7095 20.248C63.7708 20.248 62.8962 20.4827 62.0855 20.952C61.2748 21.4 60.6135 22.072 60.1015 22.968C59.6108 23.8427 59.3655 24.888 59.3655 26.104C59.3655 27.32 59.6108 28.3867 60.1015 29.304C60.6135 30.2213 61.2748 30.9253 62.0855 31.416C62.9175 31.8853 63.7922 32.12 64.7095 32.12C65.6482 32.12 66.5228 31.8853 67.3335 31.416C68.1442 30.9467 68.7948 30.264 69.2855 29.368C69.7975 28.4507 70.0535 27.384 70.0535 26.168ZM87.421 17.08C88.8077 17.08 90.045 17.368 91.133 17.944C92.2423 18.52 93.1063 19.3733 93.725 20.504C94.3437 21.6347 94.653 23 94.653 24.6V35H91.037V25.144C91.037 23.5653 90.6423 22.36 89.853 21.528C89.0637 20.6747 87.9863 20.248 86.621 20.248C85.2557 20.248 84.1677 20.6747 83.357 21.528C82.5677 22.36 82.173 23.5653 82.173 25.144V35H78.525V17.368H82.173V19.384C82.7703 18.6587 83.5277 18.0933 84.445 17.688C85.3837 17.2827 86.3757 17.08 87.421 17.08ZM98.0903 26.104C98.0903 24.3333 98.4529 22.7653 99.1783 21.4C99.9249 20.0347 100.928 18.9787 102.186 18.232C103.466 17.464 104.885 17.08 106.442 17.08C107.594 17.08 108.725 17.336 109.834 17.848C110.965 18.3387 111.861 19 112.522 19.832V11.32H116.202V35H112.522V32.344C111.925 33.1973 111.093 33.9013 110.026 34.456C108.981 35.0107 107.776 35.288 106.41 35.288C104.874 35.288 103.466 34.904 102.186 34.136C100.928 33.3467 99.9249 32.2587 99.1783 30.872C98.4529 29.464 98.0903 27.8747 98.0903 26.104ZM112.522 26.168C112.522 24.952 112.266 23.896 111.754 23C111.264 22.104 110.613 21.4213 109.802 20.952C108.992 20.4827 108.117 20.248 107.178 20.248C106.24 20.248 105.365 20.4827 104.554 20.952C103.744 21.4 103.082 22.072 102.57 22.968C102.08 23.8427 101.834 24.888 101.834 26.104C101.834 27.32 102.08 28.3867 102.57 29.304C103.082 30.2213 103.744 30.9253 104.554 31.416C105.386 31.8853 106.261 32.12 107.178 32.12C108.117 32.12 108.992 31.8853 109.802 31.416C110.613 30.9467 111.264 30.264 111.754 29.368C112.266 28.4507 112.522 27.384 112.522 26.168ZM128.642 35.288C126.978 35.288 125.474 34.9147 124.13 34.168C122.786 33.4 121.73 32.3333 120.962 30.968C120.194 29.5813 119.81 27.9813 119.81 26.168C119.81 24.376 120.204 22.7867 120.994 21.4C121.783 20.0133 122.86 18.9467 124.226 18.2C125.591 17.4533 127.116 17.08 128.802 17.08C130.487 17.08 132.012 17.4533 133.378 18.2C134.743 18.9467 135.82 20.0133 136.61 21.4C137.399 22.7867 137.794 24.376 137.794 26.168C137.794 27.96 137.388 29.5493 136.578 30.936C135.767 32.3227 134.658 33.4 133.25 34.168C131.863 34.9147 130.327 35.288 128.642 35.288ZM128.642 32.12C129.58 32.12 130.455 31.896 131.266 31.448C132.098 31 132.77 30.328 133.282 29.432C133.794 28.536 134.05 27.448 134.05 26.168C134.05 24.888 133.804 23.8107 133.314 22.936C132.823 22.04 132.172 21.368 131.362 20.92C130.551 20.472 129.676 20.248 128.738 20.248C127.799 20.248 126.924 20.472 126.114 20.92C125.324 21.368 124.695 22.04 124.226 22.936C123.756 23.8107 123.522 24.888 123.522 26.168C123.522 28.0667 124.002 29.5387 124.962 30.584C125.943 31.608 127.17 32.12 128.642 32.12ZM150.296 17.08C151.683 17.08 152.92 17.368 154.008 17.944C155.117 18.52 155.981 19.3733 156.6 20.504C157.219 21.6347 157.528 23 157.528 24.6V35H153.912V25.144C153.912 23.5653 153.517 22.36 152.728 21.528C151.939 20.6747 150.861 20.248 149.496 20.248C148.131 20.248 147.043 20.6747 146.232 21.528C145.443 22.36 145.048 23.5653 145.048 25.144V35H141.4V17.368H145.048V19.384C145.645 18.6587 146.403 18.0933 147.32 17.688C148.259 17.2827 149.251 17.08 150.296 17.08ZM163.653 35.224C162.992 35.224 162.437 35 161.989 34.552C161.541 34.104 161.317 33.5493 161.317 32.888C161.317 32.2267 161.541 31.672 161.989 31.224C162.437 30.776 162.992 30.552 163.653 30.552C164.293 30.552 164.837 30.776 165.285 31.224C165.733 31.672 165.957 32.2267 165.957 32.888C165.957 33.5493 165.733 34.104 165.285 34.552C164.837 35 164.293 35.224 163.653 35.224Z" fill="black"/>
</svg>  