<svg width="172" height="37" viewBox="0 0 172 37" fill="none" xmlns="http://www.w3.org/2000/svg">
  <path d="M4.75 17.1875C3.67708 17.5 2.86458 18.0625 2.3125 18.875C1.76042 19.6875 1.48438 20.8125 1.48438 22.25V23.2656C1.48438 25.3073 2.08333 26.776 3.28125 27.6719C4.46875 28.5573 6.28125 29 8.71875 29H23.8594V5.79688H9.60938C7.00521 5.79688 5.08854 6.24479 3.85938 7.14062C2.61979 8.03646 2 9.5 2 11.5312V12.4531C2 14.9219 2.91667 16.5 4.75 17.1875ZM10.0312 9.73438H18.8281V15.5312H9.96875C9 15.5312 8.29167 15.3594 7.84375 15.0156C7.38542 14.6615 7.15625 13.9792 7.15625 12.9688V12.2656C7.15625 11.2865 7.39062 10.6198 7.85938 10.2656C8.31771 9.91146 9.04167 9.73438 10.0312 9.73438ZM6.67188 22.4375V21.7031C6.67188 20.7135 6.91146 20.0469 7.39062 19.7031C7.86979 19.349 8.60938 19.1719 9.60938 19.1719H18.8281V25H9.45312C8.49479 25 7.79167 24.8281 7.34375 24.4844C6.89583 24.1302 6.67188 23.4479 6.67188 22.4375Z" fill="black" fill-opacity="0.8"/>
  <path d="M43.8896 17.1875C44.9626 17.5 45.7751 18.0625 46.3271 18.875C46.8792 19.6875 47.1553 20.8125 47.1553 22.25V23.2656C47.1553 25.3073 46.5563 26.776 45.3584 27.6719C44.1709 28.5573 42.3584 29 39.9209 29H24.7803V5.79688H39.0303C41.6344 5.79688 43.5511 6.24479 44.7803 7.14062C46.0199 8.03646 46.6396 9.5 46.6396 11.5312V12.4531C46.6396 14.9219 45.723 16.5 43.8896 17.1875ZM38.6084 9.73438H29.8115V15.5312H38.6709C39.6396 15.5312 40.348 15.3594 40.7959 15.0156C41.2542 14.6615 41.4834 13.9792 41.4834 12.9688V12.2656C41.4834 11.2865 41.249 10.6198 40.7803 10.2656C40.3219 9.91146 39.598 9.73438 38.6084 9.73438ZM41.9678 22.4375V21.7031C41.9678 20.7135 41.7282 20.0469 41.249 19.7031C40.7699 19.349 40.0303 19.1719 39.0303 19.1719H29.8115V25H39.1865C40.1449 25 40.848 24.8281 41.2959 24.4844C41.7438 24.1302 41.9678 23.4479 41.9678 22.4375ZM58.8209 12.3281H60.774V16.5156H57.8365C56.899 16.5156 56.1178 16.6042 55.4928 16.7812C54.8782 16.9583 54.4094 17.2344 54.0865 17.6094C53.7636 17.9844 53.5396 18.4062 53.4146 18.875C53.2896 19.3438 53.2271 19.9323 53.2271 20.6406V29H48.274V12.3594H53.0709V15.1406C53.5084 14.224 54.1855 13.526 55.1021 13.0469C56.0188 12.5677 57.2584 12.3281 58.8209 12.3281ZM69.7209 12.0469C72.023 12.0469 73.8407 12.2448 75.174 12.6406C76.5178 13.026 77.4761 13.6198 78.049 14.4219C78.6219 15.2135 78.9084 16.276 78.9084 17.6094V29H74.0959V27.1094C73.6688 27.849 72.9292 28.401 71.8771 28.7656C70.8251 29.1302 69.3146 29.3125 67.3459 29.3125C64.6376 29.3125 62.7574 28.9948 61.7053 28.3594C60.6636 27.7135 60.1428 26.5208 60.1428 24.7812V24.0781C60.1428 22.3594 60.648 21.1667 61.6584 20.5C62.6688 19.8333 64.4917 19.401 67.1271 19.2031L70.5178 18.9844C71.5282 18.901 72.2678 18.8021 72.7365 18.6875C73.2053 18.5729 73.5178 18.4271 73.674 18.25C73.8303 18.0625 73.9084 17.7865 73.9084 17.4219V17.0312C73.9084 16.625 73.8094 16.3073 73.6115 16.0781C73.4136 15.8385 72.9969 15.651 72.3615 15.5156C71.7261 15.3698 70.8251 15.2969 69.6584 15.2969C68.0334 15.2969 66.9292 15.4427 66.3459 15.7344C65.773 16.026 65.4553 16.5104 65.3928 17.1875L65.3615 17.6719H60.5646L60.5959 17C60.648 16.1875 60.8355 15.4896 61.1584 14.9062C61.4917 14.3229 62.0021 13.8125 62.6896 13.375C63.3771 12.9271 64.3042 12.5938 65.4709 12.375C66.6376 12.1562 68.0542 12.0469 69.7209 12.0469ZM68.6896 26.0625C70.4709 26.0625 71.7834 25.8125 72.6271 25.3125C73.4813 24.8021 73.9084 23.974 73.9084 22.8281V21.1562C73.4396 21.5104 72.299 21.7448 70.4865 21.8594L68.3146 22.0625C66.9501 22.1562 66.049 22.3281 65.6115 22.5781C65.174 22.8281 64.9553 23.2812 64.9553 23.9375V24.3281C64.9553 24.7969 65.049 25.151 65.2365 25.3906C65.4344 25.6198 65.7938 25.7917 66.3146 25.9062C66.8459 26.0104 67.6376 26.0625 68.6896 26.0625ZM91.8709 12.0469C94.6521 12.0469 96.6574 12.5625 97.8865 13.5938C99.1261 14.625 99.7459 16.2917 99.7459 18.5938V29H94.8084V19.8125C94.8084 19.0625 94.7407 18.4531 94.6053 17.9844C94.4803 17.5052 94.2459 17.1042 93.9021 16.7812C93.5584 16.4479 93.0844 16.2135 92.4803 16.0781C91.8865 15.9427 91.1157 15.875 90.1678 15.875C88.3449 15.875 87.0949 16.1667 86.4178 16.75C85.7407 17.3333 85.4021 18.3438 85.4021 19.7812V29H80.449V12.3594H85.2459V14.5625C85.7251 13.7083 86.4803 13.0781 87.5115 12.6719C88.5428 12.2552 89.9959 12.0469 91.8709 12.0469ZM115.583 14.2188V5.79688H120.537V29H115.708V27.1094C115.25 27.8698 114.495 28.4271 113.443 28.7812C112.401 29.1354 110.896 29.3125 108.927 29.3125C107.375 29.3125 106.089 29.1875 105.068 28.9375C104.047 28.6875 103.198 28.2656 102.521 27.6719C101.854 27.0677 101.375 26.2865 101.083 25.3281C100.792 24.3594 100.646 23.1406 100.646 21.6719V19.6875C100.646 18.2188 100.792 17.0052 101.083 16.0469C101.375 15.0781 101.854 14.2969 102.521 13.7031C103.198 13.099 104.047 12.6719 105.068 12.4219C106.089 12.1719 107.375 12.0469 108.927 12.0469C110.813 12.0469 112.271 12.224 113.302 12.5781C114.344 12.9323 115.104 13.4792 115.583 14.2188ZM115.615 21.3906V19.9688C115.615 19.0729 115.542 18.3594 115.396 17.8281C115.26 17.2865 114.995 16.8542 114.599 16.5312C114.214 16.1979 113.719 15.974 113.115 15.8594C112.521 15.7448 111.714 15.6875 110.693 15.6875C109.641 15.6875 108.807 15.7448 108.193 15.8594C107.578 15.974 107.078 16.1979 106.693 16.5312C106.307 16.8646 106.047 17.2969 105.912 17.8281C105.787 18.349 105.724 19.0625 105.724 19.9688V21.3906C105.724 22.2969 105.787 23.0156 105.912 23.5469C106.047 24.0677 106.307 24.4948 106.693 24.8281C107.078 25.1615 107.578 25.3854 108.193 25.5C108.807 25.6146 109.641 25.6719 110.693 25.6719C111.714 25.6719 112.521 25.6146 113.115 25.5C113.719 25.3854 114.214 25.1667 114.599 24.8438C114.995 24.5104 115.26 24.0781 115.396 23.5469C115.542 23.0052 115.615 22.2865 115.615 21.3906ZM131.718 29.3594C129.676 29.3594 128.015 29.2396 126.733 29C125.463 28.75 124.437 28.3125 123.655 27.6875C122.874 27.0521 122.338 26.2604 122.046 25.3125C121.754 24.3646 121.608 23.1302 121.608 21.6094V19.7812C121.608 18.2604 121.749 17.0312 122.03 16.0938C122.322 15.1458 122.853 14.3594 123.624 13.7344C124.405 13.099 125.437 12.6615 126.718 12.4219C127.999 12.1719 129.666 12.0469 131.718 12.0469C133.093 12.0469 134.285 12.1042 135.296 12.2188C136.317 12.3229 137.213 12.5052 137.983 12.7656C138.765 13.0156 139.405 13.3333 139.905 13.7188C140.405 14.0938 140.812 14.5781 141.124 15.1719C141.437 15.7656 141.655 16.4323 141.78 17.1719C141.916 17.901 141.983 18.7708 141.983 19.7812V21.5781C141.983 22.5885 141.916 23.4688 141.78 24.2188C141.655 24.9583 141.431 25.625 141.108 26.2188C140.785 26.8125 140.374 27.3021 139.874 27.6875C139.374 28.0729 138.733 28.3958 137.952 28.6562C137.181 28.9062 136.291 29.0833 135.28 29.1875C134.27 29.3021 133.082 29.3594 131.718 29.3594ZM131.718 25.7344C132.843 25.7344 133.733 25.6771 134.39 25.5625C135.046 25.4375 135.572 25.1979 135.968 24.8438C136.364 24.4896 136.624 24.0521 136.749 23.5312C136.874 23 136.937 22.276 136.937 21.3594V20.0156C136.937 19.2865 136.895 18.6875 136.812 18.2188C136.728 17.75 136.582 17.3385 136.374 16.9844C136.166 16.6198 135.853 16.349 135.437 16.1719C135.03 15.9844 134.535 15.849 133.952 15.7656C133.369 15.6719 132.624 15.625 131.718 15.625C130.843 15.625 130.119 15.6719 129.546 15.7656C128.983 15.849 128.504 15.9844 128.108 16.1719C127.713 16.349 127.41 16.6198 127.202 16.9844C127.004 17.3385 126.864 17.75 126.78 18.2188C126.697 18.6875 126.655 19.2865 126.655 20.0156V21.3594C126.655 22.276 126.713 23 126.827 23.5312C126.952 24.0521 127.202 24.4896 127.577 24.8438C127.963 25.1979 128.473 25.4375 129.108 25.5625C129.744 25.6771 130.614 25.7344 131.718 25.7344ZM154.446 12.0469C157.227 12.0469 159.232 12.5625 160.462 13.5938C161.701 14.625 162.321 16.2917 162.321 18.5938V29H157.383V19.8125C157.383 19.0625 157.316 18.4531 157.18 17.9844C157.055 17.5052 156.821 17.1042 156.477 16.7812C156.133 16.4479 155.659 16.2135 155.055 16.0781C154.462 15.9427 153.691 15.875 152.743 15.875C150.92 15.875 149.67 16.1667 148.993 16.75C148.316 17.3333 147.977 18.3438 147.977 19.7812V29H143.024V12.3594H147.821V14.5625C148.3 13.7083 149.055 13.0781 150.087 12.6719C151.118 12.2552 152.571 12.0469 154.446 12.0469ZM168.783 29H163.377V23.7188H168.783V29Z" fill="black" fill-opacity="0.8"/>
</svg>