<svg width="166" height="48" viewBox="0 0 166 48" fill="none" xmlns="http://www.w3.org/2000/svg">
  <path d="M6.12 23.544C4.86133 23.7787 3.82667 24.408 3.016 25.432C2.20533 26.456 1.8 27.6293 1.8 28.952C1.8 30.1467 2.09867 31.2027 2.696 32.12C3.272 33.016 4.11467 33.72 5.224 34.232C6.33333 34.744 7.64533 35 9.16 35H18.792V12.664H9.576C8.06133 12.664 6.76 12.9093 5.672 13.4C4.56267 13.8907 3.73067 14.5733 3.176 15.448C2.6 16.3227 2.312 17.3147 2.312 18.424C2.312 19.7253 2.664 20.8133 3.368 21.688C4.05067 22.5627 4.968 23.1813 6.12 23.544ZM14.312 21.88H10.216C9.14933 21.88 8.328 21.6453 7.752 21.176C7.176 20.6853 6.888 19.992 6.888 19.096C6.888 18.2 7.176 17.5067 7.752 17.016C8.328 16.5253 9.14933 16.28 10.216 16.28H14.312V21.88ZM9.8 31.352C8.712 31.352 7.86933 31.096 7.272 30.584C6.65333 30.072 6.344 29.3467 6.344 28.408C6.344 27.448 6.664 26.7013 7.304 26.168C7.944 25.6133 8.808 25.336 9.896 25.336H14.312V31.352H9.8Z" fill="black"/>
  <path d="M32.88 23.544C34.1387 23.7787 35.1733 24.408 35.984 25.432C36.7947 26.456 37.2 27.6293 37.2 28.952C37.2 30.1467 36.9013 31.2027 36.304 32.12C35.728 33.016 34.8853 33.72 33.776 34.232C32.6667 34.744 31.3547 35 29.84 35H20.208V12.664H29.424C30.9387 12.664 32.24 12.9093 33.328 13.4C34.4373 13.8907 35.2693 14.5733 35.824 15.448C36.4 16.3227 36.688 17.3147 36.688 18.424C36.688 19.7253 36.336 20.8133 35.632 21.688C34.9493 22.5627 34.032 23.1813 32.88 23.544ZM24.688 21.88H28.784C29.8507 21.88 30.672 21.6453 31.248 21.176C31.824 20.6853 32.112 19.992 32.112 19.096C32.112 18.2 31.824 17.5067 31.248 17.016C30.672 16.5253 29.8507 16.28 28.784 16.28H24.688V21.88ZM29.2 31.352C30.288 31.352 31.1307 31.096 31.728 30.584C32.3467 30.072 32.656 29.3467 32.656 28.408C32.656 27.448 32.336 26.7013 31.696 26.168C31.056 25.6133 30.192 25.336 29.104 25.336H24.688V31.352H29.2ZM45.2505 20.024C45.8265 19.0853 46.5732 18.3493 47.4905 17.816C48.4292 17.2827 49.4958 17.016 50.6905 17.016V21.72H49.5065C48.0985 21.72 47.0318 22.0507 46.3065 22.712C45.6025 23.3733 45.2505 24.5253 45.2505 26.168V35H40.7705V17.272H45.2505V20.024ZM52.556 26.072C52.556 24.28 52.908 22.6907 53.612 21.304C54.3373 19.9173 55.308 18.8507 56.524 18.104C57.7613 17.3573 59.1373 16.984 60.652 16.984C61.9747 16.984 63.1267 17.2507 64.108 17.784C65.1107 18.3173 65.9107 18.9893 66.508 19.8V17.272H71.02V35H66.508V32.408C65.932 33.24 65.132 33.9333 64.108 34.488C63.1053 35.0213 61.9427 35.288 60.62 35.288C59.1267 35.288 57.7613 34.904 56.524 34.136C55.308 33.368 54.3373 32.2907 53.612 30.904C52.908 29.496 52.556 27.8853 52.556 26.072ZM66.508 26.136C66.508 25.048 66.2947 24.12 65.868 23.352C65.4413 22.5627 64.8653 21.9653 64.14 21.56C63.4147 21.1333 62.636 20.92 61.804 20.92C60.972 20.92 60.204 21.1227 59.5 21.528C58.796 21.9333 58.22 22.5307 57.772 23.32C57.3453 24.088 57.132 25.0053 57.132 26.072C57.132 27.1387 57.3453 28.0773 57.772 28.888C58.22 29.6773 58.796 30.2853 59.5 30.712C60.2253 31.1387 60.9933 31.352 61.804 31.352C62.636 31.352 63.4147 31.1493 64.14 30.744C64.8653 30.3173 65.4413 29.72 65.868 28.952C66.2947 28.1627 66.508 27.224 66.508 26.136ZM85.2195 17.016C87.3315 17.016 89.0382 17.688 90.3395 19.032C91.6408 20.3547 92.2915 22.2107 92.2915 24.6V35H87.8115V25.208C87.8115 23.8 87.4595 22.7227 86.7555 21.976C86.0515 21.208 85.0915 20.824 83.8755 20.824C82.6382 20.824 81.6568 21.208 80.9315 21.976C80.2275 22.7227 79.8755 23.8 79.8755 25.208V35H75.3955V17.272H79.8755V19.48C80.4728 18.712 81.2302 18.1147 82.1475 17.688C83.0862 17.24 84.1102 17.016 85.2195 17.016ZM95.3997 26.072C95.3997 24.28 95.7517 22.6907 96.4557 21.304C97.1811 19.9173 98.1624 18.8507 99.3998 18.104C100.637 17.3573 102.013 16.984 103.528 16.984C104.68 16.984 105.778 17.24 106.824 17.752C107.869 18.2427 108.701 18.904 109.32 19.736V11.32H113.864V35H109.32V32.376C108.765 33.2507 107.986 33.9547 106.984 34.488C105.981 35.0213 104.818 35.288 103.496 35.288C102.002 35.288 100.637 34.904 99.3998 34.136C98.1624 33.368 97.1811 32.2907 96.4557 30.904C95.7517 29.496 95.3997 27.8853 95.3997 26.072ZM109.352 26.136C109.352 25.048 109.138 24.12 108.712 23.352C108.285 22.5627 107.709 21.9653 106.984 21.56C106.258 21.1333 105.48 20.92 104.648 20.92C103.816 20.92 103.048 21.1227 102.344 21.528C101.64 21.9333 101.064 22.5307 100.616 23.32C100.189 24.088 99.9758 25.0053 99.9758 26.072C99.9758 27.1387 100.189 28.0773 100.616 28.888C101.064 29.6773 101.64 30.2853 102.344 30.712C103.069 31.1387 103.837 31.352 104.648 31.352C105.48 31.352 106.258 31.1493 106.984 30.744C107.709 30.3173 108.285 29.72 108.712 28.952C109.138 28.1627 109.352 27.224 109.352 26.136ZM126.111 35.288C124.405 35.288 122.869 34.9147 121.503 34.168C120.138 33.4 119.061 32.3227 118.271 30.936C117.503 29.5493 117.119 27.9493 117.119 26.136C117.119 24.3227 117.514 22.7227 118.303 21.336C119.114 19.9493 120.213 18.8827 121.599 18.136C122.986 17.368 124.533 16.984 126.239 16.984C127.946 16.984 129.493 17.368 130.879 18.136C132.266 18.8827 133.354 19.9493 134.143 21.336C134.954 22.7227 135.359 24.3227 135.359 26.136C135.359 27.9493 134.943 29.5493 134.111 30.936C133.301 32.3227 132.191 33.4 130.783 34.168C129.397 34.9147 127.839 35.288 126.111 35.288ZM126.111 31.384C126.922 31.384 127.679 31.192 128.383 30.808C129.109 30.4027 129.685 29.8053 130.111 29.016C130.538 28.2267 130.751 27.2667 130.751 26.136C130.751 24.4507 130.303 23.16 129.407 22.264C128.533 21.3467 127.455 20.888 126.175 20.888C124.895 20.888 123.818 21.3467 122.943 22.264C122.09 23.16 121.663 24.4507 121.663 26.136C121.663 27.8213 122.079 29.1227 122.911 30.04C123.765 30.936 124.831 31.384 126.111 31.384ZM148.47 17.016C150.582 17.016 152.288 17.688 153.59 19.032C154.891 20.3547 155.542 22.2107 155.542 24.6V35H151.062V25.208C151.062 23.8 150.71 22.7227 150.006 21.976C149.302 21.208 148.342 20.824 147.126 20.824C145.888 20.824 144.907 21.208 144.182 21.976C143.478 22.7227 143.126 23.8 143.126 25.208V35H138.646V17.272H143.126V19.48C143.723 18.712 144.48 18.1147 145.398 17.688C146.336 17.24 147.36 17.016 148.47 17.016ZM161.786 35.224C160.975 35.224 160.303 34.9787 159.77 34.488C159.258 33.976 159.002 33.3467 159.002 32.6C159.002 31.8533 159.258 31.2347 159.77 30.744C160.303 30.232 160.975 29.976 161.786 29.976C162.575 29.976 163.226 30.232 163.738 30.744C164.25 31.2347 164.506 31.8533 164.506 32.6C164.506 33.3467 164.25 33.976 163.738 34.488C163.226 34.9787 162.575 35.224 161.786 35.224Z" fill="black"/>
</svg>
  