<svg width="24" height="24" viewBox="0 0 24 23" fill="none" xmlns="http://www.w3.org/2000/svg">
    <path d="M23.7555 11.3968C23.7555 17.691 18.4376 22.7935 11.8777 22.7935C5.31785 22.7935 0 17.691 0 11.3968C0 5.1025 5.31785 0 11.8777 0C18.4376 0 23.7555 5.1025 23.7555 11.3968Z" fill="black" fill-opacity="0.8"/>
    <path d="M11.8777 2.97307C13.0306 2.97307 14.1723 3.19095 15.2374 3.61428C16.3025 4.03761 17.2703 4.6581 18.0856 5.44031C18.9008 6.22252 19.5475 7.15114 19.9887 8.17315C20.4299 9.19516 20.6569 10.2905 20.6569 11.3968C20.6569 12.503 20.4299 13.5984 19.9887 14.6204C19.5475 15.6424 18.9008 16.571 18.0856 17.3532C17.2703 18.1354 16.3025 18.7559 15.2374 19.1792C14.1723 19.6026 13.0306 19.8205 11.8777 19.8205V2.97307Z" fill="#FFF9F2"/>
</svg>
    