<svg width="47" height="24" viewBox="0 0 47 24" fill="none" xmlns="http://www.w3.org/2000/svg">
    <path d="M3.75 12.1875C2.67708 12.5 1.86458 13.0625 1.3125 13.875C0.760417 14.6875 0.484375 15.8125 0.484375 17.25V18.2656C0.484375 20.3073 1.08333 21.776 2.28125 22.6719C3.46875 23.5573 5.28125 24 7.71875 24H22.8594V0.796875H8.60938C6.00521 0.796875 4.08854 1.24479 2.85938 2.14062C1.61979 3.03646 1 4.5 1 6.53125V7.45312C1 9.92188 1.91667 11.5 3.75 12.1875ZM9.03125 4.73438H17.8281V10.5312H8.96875C8 10.5312 7.29167 10.3594 6.84375 10.0156C6.38542 9.66146 6.15625 8.97917 6.15625 7.96875V7.26562C6.15625 6.28646 6.39062 5.61979 6.85938 5.26562C7.31771 4.91146 8.04167 4.73438 9.03125 4.73438ZM5.67188 17.4375V16.7031C5.67188 15.7135 5.91146 15.0469 6.39062 14.7031C6.86979 14.349 7.60938 14.1719 8.60938 14.1719H17.8281V20H8.45312C7.49479 20 6.79167 19.8281 6.34375 19.4844C5.89583 19.1302 5.67188 18.4479 5.67188 17.4375Z" fill="black" fill-opacity="0.8"/>
    <path d="M42.8896 12.1875C43.9625 12.5 44.775 13.0625 45.3271 13.875C45.8792 14.6875 46.1552 15.8125 46.1552 17.25V18.2656C46.1552 20.3073 45.5563 21.776 44.3584 22.6719C43.1709 23.5573 41.3584 24 38.9209 24H23.7802V0.796875H38.0302C40.6344 0.796875 42.5511 1.24479 43.7802 2.14062C45.0198 3.03646 45.6396 4.5 45.6396 6.53125V7.45312C45.6396 9.92188 44.7229 11.5 42.8896 12.1875ZM37.6084 4.73438H28.8115V10.5312H37.6709C38.6396 10.5312 39.3479 10.3594 39.7959 10.0156C40.2542 9.66146 40.4834 8.97917 40.4834 7.96875V7.26562C40.4834 6.28646 40.249 5.61979 39.7802 5.26562C39.3219 4.91146 38.5979 4.73438 37.6084 4.73438ZM40.9677 17.4375V16.7031C40.9677 15.7135 40.7281 15.0469 40.249 14.7031C39.7698 14.349 39.0302 14.1719 38.0302 14.1719H28.8115V20H38.1865C39.1448 20 39.8479 19.8281 40.2959 19.4844C40.7438 19.1302 40.9677 18.4479 40.9677 17.4375Z" fill="black" fill-opacity="0.8"/>
</svg>    