<svg width="24" height="24" viewBox="0 0 24 24" fill="none"
  xmlns="http://www.w3.org/2000/svg">
  <g opacity="0.8">
    <circle cx="12" cy="12" r="10.5" stroke="black" stroke-width="3"/>
    <path d="M12 24C10.4241 24 8.8637 23.6896 7.4078 23.0866C5.95189 22.4835 4.62902 21.5996 3.51472 20.4853C2.40041 19.371 1.5165 18.0481 0.913445 16.5922C0.310388 15.1363 -6.62303e-07 13.5759 -5.24537e-07 12C-3.8677e-07 10.4241 0.310389 8.8637 0.913446 7.4078C1.5165 5.95189 2.40042 4.62902 3.51472 3.51472C4.62902 2.40041 5.95189 1.5165 7.4078 0.913445C8.86371 0.310388 10.4241 -7.31186e-07 12 -5.24537e-07L12 12L12 24Z" fill="black"/>
  </g>
</svg>
    